<mxfile host="65bd71144e">
    <diagram id="Kn0fYA5K9EwXbtWdTs7a" name="ページ1">
        <mxGraphModel dx="847" dy="679" grid="1" gridSize="10" guides="1" tooltips="1" connect="1" arrows="1" fold="1" page="1" pageScale="1" pageWidth="827" pageHeight="1169" math="0" shadow="0">
            <root>
                <mxCell id="0"/>
                <mxCell id="1" parent="0"/>
                <mxCell id="48" value="" style="endArrow=classic;html=1;edgeStyle=orthogonalEdgeStyle;exitX=1;exitY=0.5;exitDx=0;exitDy=0;entryX=0.5;entryY=1;entryDx=0;entryDy=0;noJump=0;" edge="1" parent="1" source="40" target="34">
                    <mxGeometry width="50" height="50" relative="1" as="geometry">
                        <mxPoint x="380" y="480" as="sourcePoint"/>
                        <mxPoint x="100" y="530" as="targetPoint"/>
                        <Array as="points">
                            <mxPoint x="790" y="480"/>
                            <mxPoint x="790" y="690"/>
                            <mxPoint x="100" y="690"/>
                        </Array>
                    </mxGeometry>
                </mxCell>
                <mxCell id="5" value="トップ画面" style="rounded=0;whiteSpace=wrap;html=1;" vertex="1" parent="1">
                    <mxGeometry x="20" y="290" width="160" height="80" as="geometry"/>
                </mxCell>
                <mxCell id="18" value="店舗詳細画面" style="rounded=0;whiteSpace=wrap;html=1;" vertex="1" parent="1">
                    <mxGeometry x="580" y="290" width="160" height="80" as="geometry"/>
                </mxCell>
                <mxCell id="19" value="" style="endArrow=classic;exitX=1;exitY=0.5;exitDx=0;exitDy=0;verticalAlign=bottom;noJump=0;" edge="1" parent="1" source="5">
                    <mxGeometry width="50" height="50" relative="1" as="geometry">
                        <mxPoint x="10" y="340" as="sourcePoint"/>
                        <mxPoint x="300" y="330" as="targetPoint"/>
                    </mxGeometry>
                </mxCell>
                <mxCell id="20" value="検索" style="edgeLabel;html=1;align=center;verticalAlign=middle;resizable=0;points=[];" vertex="1" connectable="0" parent="19">
                    <mxGeometry x="0.1667" relative="1" as="geometry">
                        <mxPoint x="-12" y="-11" as="offset"/>
                    </mxGeometry>
                </mxCell>
                <mxCell id="29" value="検索画面" style="rounded=0;whiteSpace=wrap;html=1;" vertex="1" parent="1">
                    <mxGeometry x="300" y="290" width="160" height="80" as="geometry"/>
                </mxCell>
                <mxCell id="30" value="" style="endArrow=classic;exitX=1;exitY=0.5;exitDx=0;exitDy=0;verticalAlign=bottom;" edge="1" parent="1">
                    <mxGeometry width="50" height="50" relative="1" as="geometry">
                        <mxPoint x="460" y="329.5" as="sourcePoint"/>
                        <mxPoint x="580" y="329.5" as="targetPoint"/>
                    </mxGeometry>
                </mxCell>
                <mxCell id="31" value="お店選択" style="edgeLabel;html=1;align=center;verticalAlign=middle;resizable=0;points=[];" vertex="1" connectable="0" parent="30">
                    <mxGeometry x="0.1667" relative="1" as="geometry">
                        <mxPoint x="-12" y="-11" as="offset"/>
                    </mxGeometry>
                </mxCell>
                <mxCell id="32" value="" style="endArrow=classic;exitX=1;exitY=0.5;exitDx=0;exitDy=0;verticalAlign=bottom;" edge="1" parent="1">
                    <mxGeometry width="50" height="50" relative="1" as="geometry">
                        <mxPoint x="180" y="479.5" as="sourcePoint"/>
                        <mxPoint x="300" y="479.5" as="targetPoint"/>
                    </mxGeometry>
                </mxCell>
                <mxCell id="33" value="新規追加ボタン" style="edgeLabel;html=1;align=center;verticalAlign=middle;resizable=0;points=[];" vertex="1" connectable="0" parent="32">
                    <mxGeometry x="0.1667" relative="1" as="geometry">
                        <mxPoint x="-12" y="-11" as="offset"/>
                    </mxGeometry>
                </mxCell>
                <mxCell id="34" value="管理トップ画面&lt;br&gt;（店舗一覧画面）" style="rounded=0;whiteSpace=wrap;html=1;" vertex="1" parent="1">
                    <mxGeometry x="20" y="440" width="160" height="80" as="geometry"/>
                </mxCell>
                <mxCell id="35" value="店舗新規追加画面" style="rounded=0;whiteSpace=wrap;html=1;" vertex="1" parent="1">
                    <mxGeometry x="300" y="440" width="160" height="80" as="geometry"/>
                </mxCell>
                <mxCell id="36" value="店舗編集確認画面" style="rounded=0;whiteSpace=wrap;html=1;" vertex="1" parent="1">
                    <mxGeometry x="580" y="560" width="160" height="80" as="geometry"/>
                </mxCell>
                <mxCell id="37" value="店舗編集入力画面" style="rounded=0;whiteSpace=wrap;html=1;" vertex="1" parent="1">
                    <mxGeometry x="300" y="560" width="160" height="80" as="geometry"/>
                </mxCell>
                <mxCell id="38" value="" style="endArrow=classic;exitX=1;exitY=0.5;exitDx=0;exitDy=0;verticalAlign=bottom;entryX=0;entryY=0.5;entryDx=0;entryDy=0;" edge="1" parent="1" source="34" target="37">
                    <mxGeometry width="50" height="50" relative="1" as="geometry">
                        <mxPoint x="190" y="489.5" as="sourcePoint"/>
                        <mxPoint x="310" y="489.5" as="targetPoint"/>
                    </mxGeometry>
                </mxCell>
                <mxCell id="39" value="編集店舗を選択" style="edgeLabel;html=1;align=center;verticalAlign=middle;resizable=0;points=[];" vertex="1" connectable="0" parent="38">
                    <mxGeometry x="0.1667" relative="1" as="geometry">
                        <mxPoint x="-12" y="-11" as="offset"/>
                    </mxGeometry>
                </mxCell>
                <mxCell id="40" value="店舗新規追加確認画面" style="rounded=0;whiteSpace=wrap;html=1;" vertex="1" parent="1">
                    <mxGeometry x="580" y="440" width="160" height="80" as="geometry"/>
                </mxCell>
                <mxCell id="43" value="" style="endArrow=classic;exitX=1;exitY=0.5;exitDx=0;exitDy=0;verticalAlign=bottom;entryX=0;entryY=0.5;entryDx=0;entryDy=0;" edge="1" parent="1" source="35" target="40">
                    <mxGeometry width="50" height="50" relative="1" as="geometry">
                        <mxPoint x="190" y="489.5" as="sourcePoint"/>
                        <mxPoint x="310" y="489.5" as="targetPoint"/>
                    </mxGeometry>
                </mxCell>
                <mxCell id="44" value="確認ボタン" style="edgeLabel;html=1;align=center;verticalAlign=middle;resizable=0;points=[];" vertex="1" connectable="0" parent="43">
                    <mxGeometry x="0.1667" relative="1" as="geometry">
                        <mxPoint x="-12" y="-11" as="offset"/>
                    </mxGeometry>
                </mxCell>
                <mxCell id="45" value="" style="endArrow=classic;exitX=1;exitY=0.5;exitDx=0;exitDy=0;verticalAlign=bottom;entryX=0;entryY=0.5;entryDx=0;entryDy=0;" edge="1" parent="1">
                    <mxGeometry width="50" height="50" relative="1" as="geometry">
                        <mxPoint x="460" y="599.5" as="sourcePoint"/>
                        <mxPoint x="580" y="599.5" as="targetPoint"/>
                    </mxGeometry>
                </mxCell>
                <mxCell id="46" value="確認ボタン" style="edgeLabel;html=1;align=center;verticalAlign=middle;resizable=0;points=[];" vertex="1" connectable="0" parent="45">
                    <mxGeometry x="0.1667" relative="1" as="geometry">
                        <mxPoint x="-12" y="-11" as="offset"/>
                    </mxGeometry>
                </mxCell>
                <mxCell id="49" value="" style="endArrow=classic;html=1;edgeStyle=orthogonalEdgeStyle;exitX=1;exitY=0.5;exitDx=0;exitDy=0;entryX=0.628;entryY=1.027;entryDx=0;entryDy=0;entryPerimeter=0;" edge="1" parent="1" source="36" target="34">
                    <mxGeometry width="50" height="50" relative="1" as="geometry">
                        <mxPoint x="750" y="490" as="sourcePoint"/>
                        <mxPoint x="110" y="530" as="targetPoint"/>
                        <Array as="points">
                            <mxPoint x="770" y="600"/>
                            <mxPoint x="770" y="670"/>
                            <mxPoint x="121" y="670"/>
                        </Array>
                    </mxGeometry>
                </mxCell>
                <mxCell id="50" value="確定ボタン" style="edgeLabel;html=1;align=center;verticalAlign=middle;resizable=0;points=[];" vertex="1" connectable="0" parent="49">
                    <mxGeometry x="-0.2299" y="-1" relative="1" as="geometry">
                        <mxPoint x="-84" as="offset"/>
                    </mxGeometry>
                </mxCell>
                <mxCell id="51" value="確定ボタン" style="edgeLabel;html=1;align=center;verticalAlign=middle;resizable=0;points=[];" vertex="1" connectable="0" parent="1">
                    <mxGeometry x="480" y="690" as="geometry"/>
                </mxCell>
            </root>
        </mxGraphModel>
    </diagram>
</mxfile>